<?xml version="1.0" encoding="UTF-8" standalone="no"?>
<svg
   xmlns:dc="http://purl.org/dc/elements/1.1/"
   xmlns:cc="http://creativecommons.org/ns#"
   xmlns:rdf="http://www.w3.org/1999/02/22-rdf-syntax-ns#"
   xmlns:svg="http://www.w3.org/2000/svg"
   xmlns="http://www.w3.org/2000/svg"
   xmlns:sodipodi="http://sodipodi.sourceforge.net/DTD/sodipodi-0.dtd"
   xmlns:inkscape="http://www.inkscape.org/namespaces/inkscape"
   width="30"
   height="27"
   viewBox="0 0 30 27"
   version="1.1"
   id="svg29"
   sodipodi:docname="Mask Group 12.svg"
   inkscape:version="0.92.4 (5da689c313, 2019-01-14)">
  <metadata
     id="metadata33">
    <rdf:RDF>
      <cc:Work
         rdf:about="">
        <dc:format>image/svg+xml</dc:format>
        <dc:type
           rdf:resource="http://purl.org/dc/dcmitype/StillImage" />
      </cc:Work>
    </rdf:RDF>
  </metadata>
  <sodipodi:namedview
     pagecolor="#ffffff"
     bordercolor="#666666"
     borderopacity="1"
     objecttolerance="10"
     gridtolerance="10"
     guidetolerance="10"
     inkscape:pageopacity="0"
     inkscape:pageshadow="2"
     inkscape:window-width="1116"
     inkscape:window-height="709"
     id="namedview31"
     showgrid="false"
     inkscape:zoom="8.7407407"
     inkscape:cx="15"
     inkscape:cy="13.5"
     inkscape:window-x="0"
     inkscape:window-y="0"
     inkscape:window-maximized="0"
     inkscape:current-layer="svg29" />
  <defs
     id="defs17">
    <filter
       id="Rectangle_1498"
       x="-18"
       y="-12"
       width="66"
       height="63"
       filterUnits="userSpaceOnUse">
      <feOffset
         dy="6"
         input="SourceAlpha"
         id="feOffset2" />
      <feGaussianBlur
         stdDeviation="6"
         result="blur"
         id="feGaussianBlur4" />
      <feFlood
         flood-color="#041e42"
         id="feFlood6" />
      <feComposite
         operator="in"
         in2="blur"
         id="feComposite8"
         result="result1" />
      <feComposite
         in="SourceGraphic"
         in2="result1"
         id="feComposite10" />
    </filter>
    <clipPath
       id="clip-path">
      <g
         transform="matrix(1, 0, 0, 1, 0, 0)"
         filter="url(#Rectangle_1498)"
         id="g14">
        <rect
           id="Rectangle_1498-2"
           data-name="Rectangle 1498"
           width="30"
           height="27"
           transform="translate(-2 7.5)"
           fill="#fff" />
      </g>
    </clipPath>
  </defs>
  <g
     transform="matrix(1.1139178,0,0,1.1139178,0.65346457,0.94242352)"
     data-name="5078913561579680322"
     id="_5078913561579680322"
     style="fill:#041e42;fill-opacity:1">
    <g
       data-name="Group 105"
       id="Group_105"
       style="fill:#041e42;fill-opacity:1">
      <path
         style="fill:#041e42;fill-opacity:1;stroke:#041e42;stroke-width:0.5"
         inkscape:connector-curvature="0"
         transform="translate(-104.75,-53.579)"
         d="m 115.889,66.522 a 0.234,0.234 0 0 1 -0.121,-0.034 l -5.4,-3.264 a 0.254,0.254 0 0 1 -0.113,-0.154 0.266,0.266 0 0 1 0.024,-0.193 l 3.773,-6.843 a 0.244,0.244 0 0 1 0.147,-0.119 0.233,0.233 0 0 1 0.184,0.025 l 5.4,3.264 a 0.254,0.254 0 0 1 0.113,0.154 0.265,0.265 0 0 1 -0.024,0.193 L 116.1,66.4 a 0.241,0.241 0 0 1 -0.211,0.127 m -5.066,-3.611 4.977,3.009 3.53,-6.4 -4.977,-3.009 z"
         data-name="Path 3557"
         id="Path_3557" />
      <path
         style="fill:#041e42;fill-opacity:1;stroke:#041e42;stroke-width:0.5"
         inkscape:connector-curvature="0"
         transform="translate(-232.059,-155.094)"
         d="m 256.447,172.747 a 1.389,1.389 0 0 1 -0.72,-0.2 l -11.364,-6.871 a 0.254,0.254 0 0 1 -0.113,-0.154 0.265,0.265 0 0 1 0.024,-0.193 l 1.2,-2.182 a 0.237,0.237 0 0 1 0.332,-0.093 l 11.364,6.871 a 1.555,1.555 0 0 1 0.529,2.068 1.447,1.447 0 0 1 -0.878,0.705 1.391,1.391 0 0 1 -0.376,0.052 m -11.632,-7.388 11.154,6.744 a 0.916,0.916 0 0 0 0.728,0.1 0.961,0.961 0 0 0 0.583,-0.469 1.033,1.033 0 0 0 -0.351,-1.373 l -11.154,-6.744 z"
         data-name="Path 3558"
         id="Path_3558" />
      <path
         style="fill:#041e42;fill-opacity:1;stroke:#041e42;stroke-width:0.5"
         inkscape:connector-curvature="0"
         transform="translate(-66.622,-170.628)"
         d="m 77.628,185.9 a 1.256,1.256 0 0 1 -0.652,-0.183 l -6.2,-3.751 a 1.409,1.409 0 0 1 -0.479,-1.873 1.279,1.279 0 0 1 1.788,-0.5 l 6.2,3.75 a 1.409,1.409 0 0 1 0.479,1.873 1.3,1.3 0 0 1 -1.136,0.685 m -0.409,-0.624 a 0.786,0.786 0 0 0 0.625,0.086 0.824,0.824 0 0 0 0.5,-0.4 0.886,0.886 0 0 0 -0.3,-1.178 l -6.2,-3.75 a 0.8,0.8 0 0 0 -1.125,0.315 0.893,0.893 0 0 0 -0.082,0.654 0.852,0.852 0 0 0 0.384,0.523 z"
         data-name="Path 3559"
         id="Path_3559" />
      <path
         style="fill:#041e42;fill-opacity:1;stroke:#041e42;stroke-width:0.5"
         inkscape:connector-curvature="0"
         transform="translate(-158.788,-11.344)"
         d="m 174.634,17.838 a 1.256,1.256 0 0 1 -0.652,-0.184 l -6.2,-3.75 a 1.355,1.355 0 0 1 -0.61,-0.832 1.419,1.419 0 0 1 0.131,-1.04 1.31,1.31 0 0 1 0.795,-0.639 1.248,1.248 0 0 1 0.993,0.137 l 6.2,3.75 a 1.356,1.356 0 0 1 0.61,0.832 1.419,1.419 0 0 1 -0.131,1.04 1.31,1.31 0 0 1 -0.795,0.639 1.26,1.26 0 0 1 -0.341,0.047 m -6.2,-5.985 a 0.8,0.8 0 0 0 -0.214,0.03 0.824,0.824 0 0 0 -0.5,0.4 0.892,0.892 0 0 0 -0.082,0.654 0.852,0.852 0 0 0 0.384,0.523 l 6.2,3.75 v 0 a 0.786,0.786 0 0 0 0.625,0.086 0.824,0.824 0 0 0 0.5,-0.4 0.893,0.893 0 0 0 0.082,-0.654 0.853,0.853 0 0 0 -0.384,-0.523 l -6.2,-3.75 a 0.791,0.791 0 0 0 -0.411,-0.116"
         data-name="Path 3560"
         id="Path_3560" />
      <path
         style="fill:#041e42;fill-opacity:1;stroke:#041e42;stroke-width:0.5"
         inkscape:connector-curvature="0"
         transform="translate(-135.698,-92.184)"
         d="m 144.134,100.652 a 0.233,0.233 0 0 1 -0.121,-0.034 0.261,0.261 0 0 1 -0.089,-0.347 l 1.932,-3.5 a 0.237,0.237 0 0 1 0.332,-0.093 0.261,0.261 0 0 1 0.089,0.347 l -1.932,3.5 a 0.241,0.241 0 0 1 -0.211,0.127"
         data-name="Path 3561"
         id="Path_3561" />
      <path
         style="fill:#041e42;fill-opacity:1;stroke:#041e42;stroke-width:0.5"
         inkscape:connector-curvature="0"
         transform="translate(-32.635,-326.125)"
         d="M 45.234,344.238 H 34.59 a 0.249,0.249 0 0 1 -0.243,-0.254 v -1.794 a 0.81,0.81 0 0 1 0.79,-0.827 h 9.55 a 0.81,0.81 0 0 1 0.79,0.827 v 1.794 a 0.249,0.249 0 0 1 -0.243,0.254 m -10.4,-0.509 h 10.157 v -1.54 a 0.312,0.312 0 0 0 -0.3,-0.318 h -9.55 a 0.312,0.312 0 0 0 -0.3,0.318 z"
         data-name="Path 3562"
         id="Path_3562" />
      <path
         style="fill:#041e42;fill-opacity:1;stroke:#041e42;stroke-width:0.5"
         inkscape:connector-curvature="0"
         transform="translate(0,-368.07)"
         d="M 13.183,389.55 H 1.373 a 1.439,1.439 0 0 1 0,-2.875 h 11.81 a 1.439,1.439 0 0 1 0,2.875 m -11.81,-2.367 a 0.93,0.93 0 0 0 0,1.858 h 11.81 a 0.93,0.93 0 0 0 0,-1.858 z"
         data-name="Path 3563"
         id="Path_3563" />
    </g>
  </g>
</svg>
