<svg xmlns="http://www.w3.org/2000/svg" width="22.846" height="20.902" viewBox="0 0 22.846 20.902">
  <path id="faq" d="M17.326,21.037a1.878,1.878,0,0,1-.864,1.409c-.138.116-.4.328-.395.407a.553.553,0,0,1-.557.558h0a.554.554,0,0,1-.561-.548,1.681,1.681,0,0,1,.8-1.272c.28-.235.463-.4.463-.552a.556.556,0,0,0-1.111,0,.561.561,0,1,1-1.123,0,1.678,1.678,0,0,1,3.357,0Zm-1.8,2.892a.551.551,0,0,0-.549.561v0a.549.549,0,0,0,.549.559.563.563,0,0,0,0-1.125ZM4.2,27.84a.561.561,0,1,0,0,1.123h.047a.561.561,0,0,0,0-1.123Zm1.951,0a.561.561,0,1,0,0,1.123H6.2a.561.561,0,0,0,0-1.123ZM22.646,17.3v7.9a2.7,2.7,0,0,1-2.7,2.711H12.668c-.142,0-.26,0-.358,0s-.218,0-.264,0c-.047.031-.162.137-.273.239l-.147.134-2.06,1.878a.575.575,0,0,1-.957-.415V23.785H2.728a1.609,1.609,0,0,0-1.6,1.6V31.7a1.584,1.584,0,0,0,1.6,1.567h8.134a.564.564,0,0,1,.375.159l1.678,1.547V29.638a.561.561,0,0,1,1.123,0v6.609a.554.554,0,0,1-.331.511.539.539,0,0,1-.222.045.567.567,0,0,1-.379-.153l-2.462-2.259H2.728A2.708,2.708,0,0,1,0,31.7v-6.32a2.733,2.733,0,0,1,2.728-2.719H8.609v-3.79a2.724,2.724,0,0,1,2.737-2.7c6.363,0,8.652-.187,10.177,0C22.31,16.391,22.646,16.743,22.646,17.3Zm-1.123,1.575A1.564,1.564,0,0,0,19.95,17.3h-8.6a1.6,1.6,0,0,0-1.614,1.575v9.593l1.129-1.02a2.686,2.686,0,0,1,1.473-.668c.092,0,.2,0,.334,0H19.95a1.575,1.575,0,0,0,1.573-1.588v-6.32Z" transform="translate(0.1 -16)" fill="#041e42" stroke="#041e42" stroke-width="0.2"/>
</svg>
