<svg xmlns="http://www.w3.org/2000/svg" width="16" height="16" viewBox="0 0 16 16">
  <g id="ico_instagram" transform="translate(-550 -477.757)">
    <path id="Path_2357" data-name="Path 2357" d="M80.288,82.955a2.667,2.667,0,1,1,2.667,2.667,2.667,2.667,0,0,1-2.667-2.667m-1.442,0a4.108,4.108,0,1,0,4.108-4.108,4.108,4.108,0,0,0-4.108,4.108m7.419-4.27a.96.96,0,1,0,.96-.96.96.96,0,0,0-.96.96M79.722,89.467a4.419,4.419,0,0,1-1.485-.275,2.651,2.651,0,0,1-1.518-1.518,4.427,4.427,0,0,1-.275-1.486c-.038-.844-.047-1.1-.047-3.233s.008-2.389.047-3.233a4.428,4.428,0,0,1,.275-1.485,2.649,2.649,0,0,1,1.518-1.518,4.425,4.425,0,0,1,1.485-.276c.843-.038,1.1-.047,3.233-.047s2.389.008,3.233.047a4.428,4.428,0,0,1,1.485.276,2.648,2.648,0,0,1,1.518,1.518,4.427,4.427,0,0,1,.276,1.485c.038.844.046,1.1.046,3.233s-.008,2.389-.046,3.233a4.427,4.427,0,0,1-.276,1.486,2.65,2.65,0,0,1-1.518,1.518,4.421,4.421,0,0,1-1.485.275c-.844.039-1.1.047-3.233.047s-2.389-.008-3.233-.047M79.657,75a5.865,5.865,0,0,0-1.942.372,4.09,4.09,0,0,0-2.34,2.34A5.86,5.86,0,0,0,75,79.657c-.039.853-.048,1.126-.048,3.3s.009,2.445.048,3.3a5.856,5.856,0,0,0,.372,1.942,4.091,4.091,0,0,0,2.34,2.34,5.867,5.867,0,0,0,1.942.372c.853.039,1.126.048,3.3.048s2.445-.009,3.3-.048a5.87,5.87,0,0,0,1.942-.372,4.091,4.091,0,0,0,2.339-2.34,5.866,5.866,0,0,0,.372-1.942c.039-.853.048-1.126.048-3.3s-.009-2.445-.048-3.3a5.87,5.87,0,0,0-.372-1.942,4.091,4.091,0,0,0-2.339-2.34A5.867,5.867,0,0,0,86.253,75c-.853-.039-1.126-.048-3.3-.048s-2.445.009-3.3.048" transform="translate(475.045 402.802)" fill="#041e42"/>
  </g>
</svg>
