<svg xmlns="http://www.w3.org/2000/svg" width="27.802" height="23.59" viewBox="0 0 27.802 23.59">
  <g id="all_order" data-name="all order" transform="translate(0.5 1.5)">
    <g id="Group_82" data-name="Group 82" transform="translate(0 -1)">
      <g id="Group_291" data-name="Group 291">
        <path id="Path_34" data-name="Path 34" d="M2.163,33.9a2.329,2.329,0,0,0,0-4.647,2.329,2.329,0,0,0,0,4.647Zm0-3.568a1.245,1.245,0,0,1,0,2.484,1.245,1.245,0,0,1,0-2.484Z" transform="translate(0 -29.25)" fill="#041e42" stroke="#041e42" stroke-width="1"/>
        <path id="Path_35" data-name="Path 35" d="M2.163,196.786a2.324,2.324,0,0,0,0-4.636,2.324,2.324,0,0,0,0,4.636Zm0-3.558a1.243,1.243,0,0,1,0,2.481,1.243,1.243,0,0,1,0-2.481Z" transform="translate(0 -182.508)" fill="#041e42" stroke="#041e42" stroke-width="1"/>
        <path id="Path_37" data-name="Path 37" d="M164.348,70.276h18.335c.414,0,.748-.14.748-.313s-.334-.313-.748-.313H164.348c-.414,0-.748.14-.748.313S163.934,70.276,164.348,70.276Z" transform="translate(-156.629 -67.998)" fill="#041e42" stroke="#041e42" stroke-width="1"/>
        <path id="Path_38" data-name="Path 38" d="M164.348,233.176h18.335c.414,0,.748-.14.748-.313s-.334-.313-.748-.313H164.348c-.414,0-.748.14-.748.313S163.934,233.176,164.348,233.176Z" transform="translate(-156.629 -221.666)" fill="#041e42" stroke="#041e42" stroke-width="1"/>
        <path id="Path_39" data-name="Path 39" d="M164.348,395.976h18.335c.414,0,.748-.14.748-.313s-.334-.313-.748-.313H164.348c-.414,0-.748.14-.748.313S163.934,395.976,164.348,395.976Z" transform="translate(-156.629 -375.283)" fill="#041e42" stroke="#041e42" stroke-width="1"/>
        <path id="Path_3521" data-name="Path 3521" d="M2.163,33.9a2.329,2.329,0,0,0,0-4.647,2.329,2.329,0,0,0,0,4.647Zm0-3.568a1.245,1.245,0,0,1,0,2.484,1.245,1.245,0,0,1,0-2.484Z" transform="translate(0 -11.307)" fill="#041e42" stroke="#041e42" stroke-width="1"/>
      </g>
    </g>
  </g>
</svg>
