<svg xmlns="http://www.w3.org/2000/svg" width="80.794" height="66.901" viewBox="0 0 80.794 66.901">
  <path id="Path_13" data-name="Path 13" d="M1549.835,1011.4l-31.73-24.3c-8.806-6.785-11.4-20.983-5.958-31.711a19.132,19.132,0,0,1,11.657-10.255,15.844,15.844,0,0,1,14.116,2.839l11.787,9.151,11.784-9.151a15.39,15.39,0,0,1,14.118-2.839,19.131,19.131,0,0,1,11.656,10.255c5.439,10.727,2.849,24.926-5.958,31.711Zm-21.758-59.005a15.953,15.953,0,0,0-2.72.316,12.668,12.668,0,0,0-7.642,6.626c-3.626,7.1-1.813,16.408,3.886,20.825l28.233,21.772,28.234-21.772c5.7-4.417,7.511-13.725,3.885-20.825a11.747,11.747,0,0,0-7.641-6.626,10.23,10.23,0,0,0-9.195,1.893l-15.283,11.674L1534.552,954.6A10.9,10.9,0,0,0,1528.077,952.391Z" transform="translate(-1509.309 -944.495)" fill="#041e42"/>
</svg>
