<?xml version="1.0" encoding="UTF-8" standalone="no"?>
<svg
   xmlns:dc="http://purl.org/dc/elements/1.1/"
   xmlns:cc="http://creativecommons.org/ns#"
   xmlns:rdf="http://www.w3.org/1999/02/22-rdf-syntax-ns#"
   xmlns:svg="http://www.w3.org/2000/svg"
   xmlns="http://www.w3.org/2000/svg"
   xmlns:sodipodi="http://sodipodi.sourceforge.net/DTD/sodipodi-0.dtd"
   xmlns:inkscape="http://www.inkscape.org/namespaces/inkscape"
   width="17.517"
   height="25.584"
   viewBox="0 0 17.517 25.584"
   version="1.1"
   id="svg6"
   sodipodi:docname="pin.svg"
   inkscape:version="0.92.4 (5da689c313, 2019-01-14)">
  <metadata
     id="metadata12">
    <rdf:RDF>
      <cc:Work
         rdf:about="">
        <dc:format>image/svg+xml</dc:format>
        <dc:type
           rdf:resource="http://purl.org/dc/dcmitype/StillImage" />
      </cc:Work>
    </rdf:RDF>
  </metadata>
  <defs
     id="defs10" />
  <sodipodi:namedview
     pagecolor="#ffffff"
     bordercolor="#666666"
     borderopacity="1"
     objecttolerance="10"
     gridtolerance="10"
     guidetolerance="10"
     inkscape:pageopacity="0"
     inkscape:pageshadow="2"
     inkscape:window-width="694"
     inkscape:window-height="480"
     id="namedview8"
     showgrid="false"
     inkscape:zoom="9.2245155"
     inkscape:cx="8.6285293"
     inkscape:cy="12.740393"
     inkscape:window-x="0"
     inkscape:window-y="0"
     inkscape:window-maximized="0"
     inkscape:current-layer="svg6" />
  <g
     id="Pin"
     transform="matrix(0.96845643,0,0,0.96845643,0.76048677,0.88788637)">
    <g
       id="Group_69"
       data-name="Group 69"
       transform="translate(4,4)">
      <path
         id="Path_22"
         data-name="Path 22"
         d="m 801.711,951.958 a 2.829,2.829 0 1 1 2.811,-2.829 2.826,2.826 0 0 1 -2.811,2.829 z m 0,-5.035 a 2.206,2.206 0 1 0 2.192,2.206 2.2,2.2 0 0 0 -2.192,-2.206 z"
         transform="translate(-797.533,-945.013)"
         inkscape:connector-curvature="0"
         style="fill:#041e42;stroke:#041e42;stroke-width:1" />
      <path
         id="Path_23"
         data-name="Path 23"
         d="m 784.358,947.7 -6.353,-9.335 a 9.516,9.516 0 0 1 -1.906,-5.686 c 0,-5.061 3.7,-9.174 8.259,-9.174 4.559,0 8.259,4.113 8.259,9.174 a 9.516,9.516 0 0 1 -1.906,5.686 z m 0,-23.187 c -4.047,0 -7.351,3.67 -7.351,8.166 a 8.448,8.448 0 0 0 1.706,5.081 l 5.627,8.267 5.645,-8.267 a 8.412,8.412 0 0 0 1.706,-5.081 c 0.019,-4.501 -3.285,-8.171 -7.333,-8.171 z"
         transform="translate(-780.1,-927.5)"
         inkscape:connector-curvature="0"
         style="fill:#041e42;stroke:#041e42;stroke-width:1" />
    </g>
  </g>
</svg>
