<svg xmlns="http://www.w3.org/2000/svg" width="22.138" height="16.691" viewBox="0 0 22.138 16.691">
  <g id="handshake-1" transform="translate(-32.998 -121.299)">
    <path id="Path_3568" data-name="Path 3568" d="M51.719,125.021l-2.751-3.008c-.406-.462-.532-.715-1.1-.715h-8.94a1.6,1.6,0,0,0-1.313.715l-2.562,2.609H32v10.509H33.47c.681,0,.825-.633.825-1.412h.756l3.265,3.4a3.043,3.043,0,0,0,4.072.171c.483.481,1.577.29,1.577.29a4.013,4.013,0,0,0,1.618-1.156c.851.386,1.171.152,2.047-.5l.95-1.086A10.123,10.123,0,0,0,49.685,133h2.035c.005.779.112,2.133.787,2.133h1.63v-10.11H51.719Zm-18.864,8.685A.716.716,0,1,1,33.47,133,.67.67,0,0,1,32.855,133.707Zm15.124-.217-.745.865a2.258,2.258,0,0,1-.773.529,1,1,0,0,1-.6-.051,2.9,2.9,0,0,1-.7-.478,6.443,6.443,0,0,1-.719,1.438c-.368.457-.239.554-.752.389a4.605,4.605,0,0,1-1.3-1.051l-.23,1.051c-.538.76-2.612.589-3.232,0l-3.37-3.893H34.294V125.5h1.261l2.761-2.815c.077-.038.532.032.609,0H41.6l-1.98,1.935a3.532,3.532,0,0,0-.17,4.507,2.545,2.545,0,0,0,3.918.2l.594-.57,4.615,3.881c.121.127-.5.7-.6.854Zm3.741-1.9h-2.4a1,1,0,0,1-.351-.16L44.7,127.783l.841-.755c.252-.266.038-1.007.038-1.007l-.423-.519a2.17,2.17,0,0,0-.457.38l-2.315,2.467a1.647,1.647,0,0,1-1.9,0,4.286,4.286,0,0,1-.629-1.322,1.4,1.4,0,0,1,.2-1.007l3.068-2.982a1.973,1.973,0,0,1,1.158-.674h3.2c.082,0,.36.259.415.322l2.49,3.195h1.326Zm1.4,2.121a.716.716,0,1,1,.615-.709A.662.662,0,0,1,53.121,133.707Z" transform="translate(1 0)" fill="#041e42"/>
  </g>
</svg>
