<svg xmlns="http://www.w3.org/2000/svg" width="23.276" height="28.684" viewBox="0 0 23.276 28.684">
  <g id="Group_283" data-name="Group 283" transform="translate(-44 -121)">
    <g id="Glass" transform="translate(44 121)" fill="none">
      <path d="M10.5,0A10.5,10.5,0,1,1,0,10.5,10.5,10.5,0,0,1,10.5,0Z" stroke="none"/>
      <path d="M 10.5 3 C 6.364489555358887 3 3 6.364489555358887 3 10.5 C 3 14.6355094909668 6.364489555358887 18 10.5 18 C 14.6355094909668 18 18 14.6355094909668 18 10.5 C 18 6.364489555358887 14.6355094909668 3 10.5 3 M 10.5 0 C 16.29899024963379 0 21 4.701009750366211 21 10.5 C 21 16.29899024963379 16.29899024963379 21 10.5 21 C 4.701009750366211 21 0 16.29899024963379 0 10.5 C 0 4.701009750366211 4.701009750366211 0 10.5 0 Z" stroke="none" fill="#041e42"/>
    </g>
    <rect id="Rectangle_1494" data-name="Rectangle 1494" width="3" height="12" rx="1.5" transform="matrix(0.819, -0.574, 0.574, 0.819, 57.935, 139.854)" fill="#041e42"/>
  </g>
</svg>
