<svg xmlns="http://www.w3.org/2000/svg" width="30.234" height="18.4" viewBox="0 0 30.234 18.4">
  <g id="Group_102" data-name="Group 102" transform="translate(285.291 2.15)">
    <g id="Group_101" data-name="Group 101">
      <path id="currency" d="M16.573,3.937l-1.056-.008L12.766.681a.618.618,0,0,0-.875,0l-1.3,1.3-1.3-1.3a.618.618,0,0,0-.875,0L5.163,3.937H1.856A1.858,1.858,0,0,0,0,5.793V16.031a1.858,1.858,0,0,0,1.856,1.856H15.448s1.125-.214,1.125-1.237V3.937ZM1.856,16.65c-.341,0-.619-.277-.619-10.857a.619.619,0,0,1,.619-.619H15.448c.02.663,0,6.254,0,6.254s.092,3.66.184,5.222c.013.1.468,0,0,0C11.413,16.688,1.856,16.65,1.856,16.65ZM14.272,3.937H10.385l1.943-1.943Zm-5.636,0H6.913L8.856,1.993l.861.861Zm0,0" transform="translate(-285.041 -1.887)" fill="#041e42" stroke="#041e42" stroke-width="0.5"/>
      <path id="Profile" d="M16.727,12.939a11.568,11.568,0,0,0-2.822-1.7,15.347,15.347,0,0,1-2.167-1.21,7.61,7.61,0,0,0,1.887-4.575,7.191,7.191,0,0,0-.551-3.3C12.577,1.172,11.467,0,9,0S5.423,1.172,4.927,2.156a7.183,7.183,0,0,0-.552,3.3,7.6,7.6,0,0,0,1.887,4.575,15.272,15.272,0,0,1-2.168,1.21,11.577,11.577,0,0,0-2.822,1.7A5.533,5.533,0,0,0,0,16.477,1.5,1.5,0,0,0,1.5,18h15A1.5,1.5,0,0,0,18,16.477,5.535,5.535,0,0,0,16.727,12.939Zm.04,3.824a.375.375,0,0,1-.268.112H1.5a.375.375,0,0,1-.266-.112.38.38,0,0,1-.108-.269,4.492,4.492,0,0,1,.943-2.759A11.43,11.43,0,0,1,4.6,12.25a12.338,12.338,0,0,0,2.437-1.4l.759-.718-.659-.81A6.51,6.51,0,0,1,5.5,5.458a6.219,6.219,0,0,1,.431-2.795A3.115,3.115,0,0,1,9,1.125a3.116,3.116,0,0,1,3.069,1.538,6.222,6.222,0,0,1,.431,2.8,6.506,6.506,0,0,1-1.635,3.865l-.659.81.759.717a12.364,12.364,0,0,0,2.437,1.4,11.379,11.379,0,0,1,2.53,1.485,4.384,4.384,0,0,1,.943,2.759A.375.375,0,0,1,16.767,16.763Z" transform="translate(-273.208 -2)" fill="#041e42" stroke="#041e42" stroke-width="0.3"/>
    </g>
    <path id="Path_3564" data-name="Path 3564" d="M38.893,344.238H34.449c-.056,0-.1-.114-.1-.254V342.19c0-.456.148-.827.33-.827h3.987c.182,0,.33.371.33.827v1.794c0,.14-.045.254-.1.254m-4.342-.509h4.241v-1.54c0-.175-.057-.318-.127-.318H34.677c-.07,0-.127.143-.127.318Z" transform="translate(-307.727 -334.959)" fill="#041e42" stroke="#041e42" stroke-width="0.5"/>
  </g>
</svg>
