<svg xmlns="http://www.w3.org/2000/svg" width="28.797" height="29.62" viewBox="0 0 28.797 29.62">
  <g id="Group_287" data-name="Group 287" transform="translate(-313 -609)">
    <rect id="Rectangle_2" data-name="Rectangle 2" width="28.797" height="29.62" rx="14.399" transform="translate(313 609)" fill="#041e42"/>
    <path id="close" d="M-1851.19,10.781l0,0L-1855,6.526l-3.807,4.254h0a.663.663,0,0,1-.488.22.748.748,0,0,1-.7-.786.833.833,0,0,1,.2-.545h0l3.732-4.171-3.684-4.117a.826.826,0,0,1-.245-.6.748.748,0,0,1,.7-.786.662.662,0,0,1,.486.219l0,0,3.81,4.258,3.807-4.254h0A.663.663,0,0,1-1850.7,0a.748.748,0,0,1,.7.786.832.832,0,0,1-.2.545h0l-3.732,4.171,3.684,4.117a.826.826,0,0,1,.245.6.748.748,0,0,1-.7.786A.662.662,0,0,1-1851.19,10.781Z" transform="translate(2183 619)" fill="#fff" stroke="#fff" stroke-width="1"/>
  </g>
</svg>
