<svg xmlns="http://www.w3.org/2000/svg" width="97.626" height="26.021" viewBox="0 0 97.626 26.021">
  <g id="Group_284" data-name="Group 284" transform="translate(0.032 0)">
    <path id="Path_1" data-name="Path 1" d="M893.359,7.114c-.418,2.724-2.5,2.724-4.507,2.724h-1.144l.805-5.091a.635.635,0,0,1,.627-.535h.523c1.371,0,2.662,0,3.333.781a2.555,2.555,0,0,1,.363,2.121M892.486,0h-7.594a1.062,1.062,0,0,0-1.045.892l-3.068,19.467a.637.637,0,0,0,.529.726.5.5,0,0,0,.1.006h3.9a.745.745,0,0,0,.732-.621l.873-5.521a1.056,1.056,0,0,1,1.039-.892h2.4c5.005,0,7.889-2.416,8.645-7.219a5.871,5.871,0,0,0-.965-4.9C896.937.67,895.025,0,892.486,0" transform="translate(-826.645)" fill="#009cde"/>
    <path id="Path_2" data-name="Path 2" d="M12.556,7.114c-.412,2.724-2.5,2.724-4.507,2.724H6.906l.805-5.091a.635.635,0,0,1,.627-.535h.523c1.371,0,2.662,0,3.333.781a2.555,2.555,0,0,1,.363,2.121M11.683,0H4.09A1.062,1.062,0,0,0,3.044.892L-.024,20.358a.633.633,0,0,0,.529.726.529.529,0,0,0,.1.006H4.231A1.051,1.051,0,0,0,5.27,20.2l.83-5.251a1.056,1.056,0,0,1,1.039-.892h2.4c5.005,0,7.889-2.423,8.645-7.219a5.871,5.871,0,0,0-.965-4.9C16.135.67,14.223,0,11.683,0M29.312,14.105a4.052,4.052,0,0,1-4.1,3.474,3.061,3.061,0,0,1-2.441-.984,3.087,3.087,0,0,1-.572-2.552,4.069,4.069,0,0,1,4.077-3.5,3.068,3.068,0,0,1,2.423.99,3.136,3.136,0,0,1,.615,2.57m5.066-7.083H30.744a.635.635,0,0,0-.627.535l-.16,1.015L29.705,8.2c-.787-1.144-2.539-1.525-4.292-1.525A8.364,8.364,0,0,0,17.3,13.988a6.866,6.866,0,0,0,1.353,5.589,5.7,5.7,0,0,0,4.581,1.851,6.965,6.965,0,0,0,5.036-2.078l-.16,1.008a.633.633,0,0,0,.529.726.529.529,0,0,0,.1.006H32A1.062,1.062,0,0,0,33.05,20.2L35.017,7.753a.637.637,0,0,0-.529-.726.6.6,0,0,1-.111-.006" fill="#003087"/>
    <path id="Path_3" data-name="Path 3" d="M1172.938,116.028a4.052,4.052,0,0,1-4.1,3.474,2.821,2.821,0,0,1-3.013-3.535,4.069,4.069,0,0,1,4.077-3.5,3.068,3.068,0,0,1,2.423.99,3.136,3.136,0,0,1,.615,2.57m5.066-7.083h-3.634a.634.634,0,0,0-.627.535l-.16,1.015-.252-.369c-.787-1.144-2.539-1.525-4.292-1.525a8.364,8.364,0,0,0-8.116,7.311,6.866,6.866,0,0,0,1.353,5.589,5.7,5.7,0,0,0,4.581,1.851,6.965,6.965,0,0,0,5.036-2.078l-.16,1.008a.633.633,0,0,0,.523.726.565.565,0,0,0,.1.006h3.271a1.062,1.062,0,0,0,1.045-.892l1.968-12.445a.637.637,0,0,0-.529-.726.566.566,0,0,1-.111-.006" transform="translate(-1089.469 -101.922)" fill="#009cde"/>
    <path id="Path_4" data-name="Path 4" d="M615.846,114.206h-3.658a1.054,1.054,0,0,0-.873.461l-5.042,7.421-2.14-7.132a1.066,1.066,0,0,0-1.008-.756h-3.591a.632.632,0,0,0-.633.633.565.565,0,0,0,.037.2l4.027,11.818-3.788,5.343a.637.637,0,0,0,.516,1h3.652a1.061,1.061,0,0,0,.867-.455L616.368,115.2a.63.63,0,0,0-.523-.99" transform="translate(-562.105 -107.178)" fill="#003087"/>
    <path id="Path_5" data-name="Path 5" d="M1462.4.535l-3.117,19.823a.637.637,0,0,0,.529.726.53.53,0,0,0,.1.006h3.136a1.062,1.062,0,0,0,1.045-.892L1467.161.732a.633.633,0,0,0-.529-.726.528.528,0,0,0-.1-.006h-3.5a.632.632,0,0,0-.633.535" transform="translate(-1369.575)" fill="#009cde"/>
  </g>
</svg>
