<?xml version="1.0" encoding="UTF-8" standalone="no"?>
<svg
   width="180.5"
   height="171.5"
   viewBox="0 0 180.5 171.5"
   version="1.1"
   id="svg39"
   sodipodi:docname="Group 266.svg"
   inkscape:version="1.1 (c68e22c387, 2021-05-23)"
   xmlns:inkscape="http://www.inkscape.org/namespaces/inkscape"
   xmlns:sodipodi="http://sodipodi.sourceforge.net/DTD/sodipodi-0.dtd"
   xmlns="http://www.w3.org/2000/svg"
   xmlns:svg="http://www.w3.org/2000/svg">
  <sodipodi:namedview
     id="namedview41"
     pagecolor="#505050"
     bordercolor="#ffffff"
     borderopacity="1"
     inkscape:pageshadow="0"
     inkscape:pageopacity="0"
     inkscape:pagecheckerboard="1"
     showgrid="false"
     inkscape:zoom="2.556701"
     inkscape:cx="83.506048"
     inkscape:cy="149.21573"
     inkscape:window-width="1440"
     inkscape:window-height="847"
     inkscape:window-x="-8"
     inkscape:window-y="-8"
     inkscape:window-maximized="1"
     inkscape:current-layer="svg39" />
  <defs
     id="defs16">
    <filter
       id="Ellipse_4"
       x="0"
       y="0"
       width="179"
       height="179"
       filterUnits="userSpaceOnUse">
      <feOffset
         dy="8"
         input="SourceAlpha"
         id="feOffset2" />
      <feGaussianBlur
         stdDeviation="7.5"
         result="blur"
         id="feGaussianBlur4" />
      <feFlood
         flood-color="#e7eaf0"
         id="feFlood6" />
      <feComposite
         operator="in"
         in2="blur"
         id="feComposite8"
         result="result1" />
      <feComposite
         in="SourceGraphic"
         in2="result1"
         id="feComposite10" />
    </filter>
    <clipPath
       id="clip-path">
      <rect
         width="57.035"
         height="81.199997"
         fill="none"
         id="rect13"
         x="0"
         y="0" />
    </clipPath>
  </defs>
  <g
     id="Group_266"
     data-name="Group 266"
     transform="translate(-630.5,-1104.5)">
    <g
       id="see_all"
       data-name="see all"
       transform="translate(653,1119)">
      <g
         transform="translate(-22.5,-14.5)"
         filter="url(#Ellipse_4)"
         id="g23">
        <g
           id="Ellipse_4-2"
           data-name="Ellipse 4"
           transform="translate(22.5,14.5)"
           fill="none"
           stroke="#041e42"
           stroke-width="3">
          <circle
             cx="67"
             cy="67"
             r="67"
             stroke="none"
             id="circle18" />
          <circle
             cx="67"
             cy="67"
             r="65.5"
             fill="none"
             id="circle20" />
        </g>
      </g>
    </g>
    <g
       id="List"
       transform="translate(695,1149.835)"
       clip-path="url(#clip-path)">
      <path
         id="Path_34"
         data-name="Path 34"
         d="m 1148.818,251.316 -2.019,-2.14 10.784,-11.5 a 4.236,4.236 0 0 0 0,-5.749 3.676,3.676 0 0 0 -5.421,0 l -4.844,5.137 -2.018,-2.14 4.844,-5.137 a 6.449,6.449 0 0 1 9.458,0 7.433,7.433 0 0 1 0,10.03 z"
         transform="translate(-1138.841,-227.725)"
         fill="#041e42" />
      <path
         id="Path_35"
         data-name="Path 35"
         d="m 1221.4,268.8 -4.5,-3.914 1.787,-2.385 4.5,3.914 z"
         transform="translate(-1169.149,-241.233)"
         fill="#041e42" />
      <path
         id="Path_36"
         data-name="Path 36"
         d="m 1207.012,252.9 -7.612,-6.544 1.787,-2.385 5.479,4.709 9.977,-11.68 2.133,2.079 z"
         transform="translate(-1161.742,-231.328)"
         fill="#041e42" />
      <path
         id="Path_37"
         data-name="Path 37"
         d="M 1189.835,296.758 H 1170.4 V 293.7 h 19.435 z"
         transform="translate(-1149.466,-253.352)"
         fill="#041e42" />
      <path
         id="Path_38"
         data-name="Path 38"
         d="M 1189.835,315.358 H 1170.4 V 312.3 h 19.435 z"
         transform="translate(-1149.466,-260.577)"
         fill="#041e42" />
      <path
         id="Path_39"
         data-name="Path 39"
         d="M 1189.835,333.958 H 1170.4 V 330.9 h 19.435 z"
         transform="translate(-1149.466,-267.802)"
         fill="#041e42" />
      <path
         id="Path_40"
         data-name="Path 40"
         d="m 1161.329,295.112 a 1.662,1.662 0 0 1 -1.615,1.712 1.7,1.7 0 0 1 -1.615,-1.712 1.617,1.617 0 1 1 3.229,0 z"
         transform="translate(-1144.259,-253.236)"
         fill="#041e42" />
      <path
         id="Path_41"
         data-name="Path 41"
         d="m 1161.329,313.712 a 1.662,1.662 0 0 1 -1.615,1.712 1.7,1.7 0 0 1 -1.615,-1.712 1.617,1.617 0 1 1 3.229,0 z"
         transform="translate(-1144.259,-260.46)"
         fill="#041e42" />
      <path
         id="Path_42"
         data-name="Path 42"
         d="m 1161.329,332.312 a 1.662,1.662 0 0 1 -1.615,1.712 1.7,1.7 0 0 1 -1.615,-1.712 1.617,1.617 0 1 1 3.229,0 z"
         transform="translate(-1144.259,-267.685)"
         fill="#041e42" />
      <path
         id="Path_43"
         data-name="Path 43"
         d="M 1188.251,313.383 H 1134.1 V 239.2 h 33.91 v 18.286 h 20.184 v 55.9 z m -51.267,-3.058 h 48.384 v -49.781 h -20.184 v -18.286 h -28.2 z"
         transform="translate(-1134.1,-232.182)"
         fill="#041e42" />
      <path
         id="Path_44"
         data-name="Path 44"
         d="m 1152.371,263.33 a 5.027,5.027 0 1 1 4.671,-5.015 4.854,4.854 0 0 1 -4.671,5.015 z m 0,-6.972 a 1.96,1.96 0 1 0 1.846,1.957 1.916,1.916 0 0 0 -1.846,-1.957 z"
         transform="translate(-1139.857,-237.659)"
         fill="#041e42" />
    </g>
  </g>
</svg>
