<?xml version="1.0" encoding="UTF-8" standalone="no"?>
<svg
   width="180.5"
   height="171.5"
   viewBox="0 0 180.5 171.5"
   version="1.1"
   id="svg32"
   sodipodi:docname="Group 268.svg"
   inkscape:version="1.1 (c68e22c387, 2021-05-23)"
   xmlns:inkscape="http://www.inkscape.org/namespaces/inkscape"
   xmlns:sodipodi="http://sodipodi.sourceforge.net/DTD/sodipodi-0.dtd"
   xmlns="http://www.w3.org/2000/svg"
   xmlns:svg="http://www.w3.org/2000/svg">
  <sodipodi:namedview
     id="namedview34"
     pagecolor="#505050"
     bordercolor="#ffffff"
     borderopacity="1"
     inkscape:pageshadow="0"
     inkscape:pageopacity="0"
     inkscape:pagecheckerboard="1"
     showgrid="false"
     inkscape:zoom="1.2783505"
     inkscape:cx="19.947581"
     inkscape:cy="159.97177"
     inkscape:window-width="1440"
     inkscape:window-height="847"
     inkscape:window-x="-8"
     inkscape:window-y="-8"
     inkscape:window-maximized="1"
     inkscape:current-layer="svg32" />
  <defs
     id="defs13">
    <filter
       id="Ellipse_4"
       x="0"
       y="0"
       width="179"
       height="179"
       filterUnits="userSpaceOnUse">
      <feOffset
         dy="8"
         input="SourceAlpha"
         id="feOffset2" />
      <feGaussianBlur
         stdDeviation="7.5"
         result="blur"
         id="feGaussianBlur4" />
      <feFlood
         flood-color="#e7eaf0"
         id="feFlood6" />
      <feComposite
         operator="in"
         in2="blur"
         id="feComposite8"
         result="result1" />
      <feComposite
         in="SourceGraphic"
         in2="result1"
         id="feComposite10" />
    </filter>
  </defs>
  <g
     id="Group_268"
     data-name="Group 268"
     transform="translate(-1591.5,-8428.5)">
    <g
       id="see_all"
       data-name="see all"
       transform="translate(1614,8443)">
      <g
         transform="translate(-22.5,-14.5)"
         filter="url(#Ellipse_4)"
         id="g20">
        <g
           id="Ellipse_4-2"
           data-name="Ellipse 4"
           transform="translate(22.5,14.5)"
           fill="none"
           stroke="#041e42"
           stroke-width="3">
          <circle
             cx="67"
             cy="67"
             r="67"
             stroke="none"
             id="circle15" />
          <circle
             cx="67"
             cy="67"
             r="65.5"
             fill="none"
             id="circle17" />
        </g>
      </g>
    </g>
    <g
       id="Growth"
       transform="translate(1619,8451)">
      <path
         id="Path_131"
         data-name="Path 131"
         d="m 1194.054,-490.7 v -1.7 h -81.56 v 1.7 a 15.886,15.886 0 0 1 -0.9,5.15 h -14.47 v 12.664 a 23.651,23.651 0 0 1 -5.885,0.788 h -1.939 v 71.316 h 1.939 a 23.221,23.221 0 0 1 5.885,0.788 v 12.663 h 14.47 a 16.177,16.177 0 0 1 0.9,5.15 v 1.7 h 81.56 v -1.7 a 15.9,15.9 0 0 1 0.9,-5.15 h 14.47 V -400 a 23.655,23.655 0 0 1 5.885,-0.788 h 1.939 V -472.1 c 0,0 -23.194,-16.846 -23.194,-18.6 z m 11.424,8.543 v 7.816 a 20.437,20.437 0 0 1 -8.862,-7.816 z m 0,11.634 v 68.223 a 24.191,24.191 0 0 0 -13.224,11.633 h -77.959 A 24.66,24.66 0 0 0 1101.07,-402.3 v -68.225 a 24.191,24.191 0 0 0 13.224,-11.634 h 77.959 a 23.957,23.957 0 0 0 13.225,11.632 z m -89.245,-18.48 h 73.943 a 20.389,20.389 0 0 0 0.693,3.454 h -75.328 a 20.413,20.413 0 0 0 0.692,-3.458 z m -15.3,6.847 h 8.862 a 21.231,21.231 0 0 1 -8.862,7.816 z m -7.824,78.041 v -64.655 a 29.588,29.588 0 0 0 3.946,-0.606 v 65.863 c -1.316,-0.242 -2.631,-0.487 -3.947,-0.606 z m 7.824,13.451 v -7.816 a 20.438,20.438 0 0 1 8.862,7.816 z m 89.244,6.847 h -73.943 a 20.413,20.413 0 0 0 -0.693,-3.454 h 75.328 a 20.389,20.389 0 0 0 -0.693,3.45 z m 15.3,-6.847 h -8.862 a 21.229,21.229 0 0 1 8.862,-7.816 z m 7.823,-13.451 a 29.608,29.608 0 0 0 -3.947,0.606 v -65.863 a 26.5,26.5 0 0 0 3.947,0.606 z"
         transform="translate(-1089.3,492.4)"
         fill="none" />
      <path
         id="Path_138"
         data-name="Path 138"
         d="m 1128.3,-353.4 v 3.454 h 74.567 v -3.454 z"
         transform="translate(-1101.298,437.622)"
         fill="#041e42" />
      <path
         id="Path_139"
         data-name="Path 139"
         d="m 1219.2,-386.856 h 3.946 V -428.3 h -3.946 z"
         transform="translate(-1129.263,467.139)"
         fill="#041e42" />
      <path
         id="Path_140"
         data-name="Path 140"
         d="M 1196.047,-375.791 V -401.3 h -3.947 v 25.509 z"
         transform="translate(-1120.926,456.498)"
         fill="#041e42" />
      <path
         id="Path_141"
         data-name="Path 141"
         d="m 1165,-374.294 h 3.947 V -397.5 H 1165 Z"
         transform="translate(-1112.589,455.001)"
         fill="#041e42" />
      <path
         id="Path_142"
         data-name="Path 142"
         d="M 1141.946,-364.166 V -371.8 H 1138 v 7.634 z"
         transform="translate(-1104.282,444.873)"
         fill="#041e42" />
      <path
         id="Path_144"
         data-name="Path 144"
         d="m 1129.1,-422.752 17.863,-15.814 4.846,4.241 3.046,-13.875 -15.093,3.211 4.5,3.938 -17.862,15.875 z m 20.7,-20.843 -0.484,2.181 -1.939,-1.7 z"
         transform="translate(-1085.193,476.679)"
         fill="#041e42" />
    </g>
  </g>
</svg>
