<?xml version="1.0" encoding="UTF-8" standalone="no"?>
<svg
   width="179"
   height="172"
   viewBox="0 0 179 172"
   version="1.1"
   id="svg25"
   sodipodi:docname="Group 265.svg"
   inkscape:version="1.1 (c68e22c387, 2021-05-23)"
   xmlns:inkscape="http://www.inkscape.org/namespaces/inkscape"
   xmlns:sodipodi="http://sodipodi.sourceforge.net/DTD/sodipodi-0.dtd"
   xmlns="http://www.w3.org/2000/svg"
   xmlns:svg="http://www.w3.org/2000/svg">
  <sodipodi:namedview
     id="namedview27"
     pagecolor="#505050"
     bordercolor="#ffffff"
     borderopacity="1"
     inkscape:pageshadow="0"
     inkscape:pageopacity="0"
     inkscape:pagecheckerboard="1"
     showgrid="false"
     inkscape:zoom="1.7318436"
     inkscape:cx="39.553226"
     inkscape:cy="111.73065"
     inkscape:window-width="1440"
     inkscape:window-height="847"
     inkscape:window-x="-8"
     inkscape:window-y="-8"
     inkscape:window-maximized="1"
     inkscape:current-layer="svg25" />
  <defs
     id="defs13">
    <filter
       id="Ellipse_4"
       x="0"
       y="0"
       width="179"
       height="179"
       filterUnits="userSpaceOnUse">
      <feOffset
         dy="8"
         input="SourceAlpha"
         id="feOffset2" />
      <feGaussianBlur
         stdDeviation="7.5"
         result="blur"
         id="feGaussianBlur4" />
      <feFlood
         flood-color="#e7eaf0"
         id="feFlood6" />
      <feComposite
         operator="in"
         in2="blur"
         id="feComposite8"
         result="result1" />
      <feComposite
         in="SourceGraphic"
         in2="result1"
         id="feComposite10" />
    </filter>
  </defs>
  <g
     id="Group_265"
     data-name="Group 265"
     transform="translate(-162.5,-1104.5)">
    <path
       id="Path_13"
       data-name="Path 13"
       d="m 1549.261,1018.27 -31.281,-26.792 c -8.681,-7.482 -11.236,-23.139 -5.874,-34.969 2.555,-5.742 6.639,-9.744 11.492,-11.309 4.853,-1.565 9.7,-0.348 13.916,3.131 l 11.62,10.091 11.617,-10.091 c 4.215,-3.653 9.066,-4.7 13.918,-3.131 4.852,1.569 8.937,5.567 11.491,11.309 5.362,11.83 2.808,27.487 -5.874,34.969 z m -21.45,-65.07 a 14.145,14.145 0 0 0 -2.681,0.348 13.008,13.008 0 0 0 -7.533,7.307 c -3.575,7.829 -1.788,18.094 3.831,22.964 l 27.833,24.009 27.834,-24.009 c 5.618,-4.871 7.4,-15.135 3.83,-22.964 -1.659,-3.828 -4.341,-6.437 -7.533,-7.307 a 9.268,9.268 0 0 0 -9.064,2.088 l -15.066,12.874 -15.066,-12.874 a 10.026,10.026 0 0 0 -6.385,-2.436 z"
       transform="translate(-1297.035,204.73)"
       fill="#041e42" />
    <g
       id="see_all"
       data-name="see all"
       transform="translate(185,1119)">
      <g
         transform="translate(-22.5,-14.5)"
         filter="url(#Ellipse_4)"
         id="g21">
        <g
           id="Ellipse_4-2"
           data-name="Ellipse 4"
           transform="translate(22.5,14.5)"
           fill="none"
           stroke="#041e42"
           stroke-width="3">
          <circle
             cx="67"
             cy="67"
             r="67"
             stroke="none"
             id="circle16" />
          <circle
             cx="67"
             cy="67"
             r="65.5"
             fill="none"
             id="circle18" />
        </g>
      </g>
    </g>
  </g>
</svg>
