<?xml version="1.0" encoding="UTF-8" standalone="no"?>
<svg
   width="177.5"
   height="174.5"
   viewBox="0 0 177.5 174.5"
   version="1.1"
   id="svg28"
   sodipodi:docname="tranquillité.svg"
   inkscape:version="1.1 (c68e22c387, 2021-05-23)"
   xmlns:inkscape="http://www.inkscape.org/namespaces/inkscape"
   xmlns:sodipodi="http://sodipodi.sourceforge.net/DTD/sodipodi-0.dtd"
   xmlns="http://www.w3.org/2000/svg"
   xmlns:svg="http://www.w3.org/2000/svg">
  <sodipodi:namedview
     id="namedview30"
     pagecolor="#505050"
     bordercolor="#ffffff"
     borderopacity="1"
     inkscape:pageshadow="0"
     inkscape:pageopacity="0"
     inkscape:pagecheckerboard="1"
     showgrid="false"
     inkscape:zoom="1.8078606"
     inkscape:cx="60.568828"
     inkscape:cy="105.37317"
     inkscape:window-width="1440"
     inkscape:window-height="847"
     inkscape:window-x="-8"
     inkscape:window-y="-8"
     inkscape:window-maximized="1"
     inkscape:current-layer="svg28" />
  <defs
     id="defs13">
    <filter
       id="Ellipse_4"
       x="0"
       y="0"
       width="179"
       height="179"
       filterUnits="userSpaceOnUse">
      <feOffset
         dy="8"
         input="SourceAlpha"
         id="feOffset2" />
      <feGaussianBlur
         stdDeviation="7.5"
         result="blur"
         id="feGaussianBlur4" />
      <feFlood
         flood-color="#e7eaf0"
         id="feFlood6" />
      <feComposite
         operator="in"
         in2="blur"
         id="feComposite8"
         result="result1" />
      <feComposite
         in="SourceGraphic"
         in2="result1"
         id="feComposite10" />
    </filter>
  </defs>
  <g
     id="Group_267"
     data-name="Group 267"
     transform="translate(-1105.5,-8428.5)">
    <g
       id="see_all"
       data-name="see all"
       transform="translate(1126,8443)">
      <g
         transform="translate(-22.5,-14.5)"
         filter="url(#Ellipse_4)"
         id="g20">
        <g
           id="Ellipse_4-2"
           data-name="Ellipse 4"
           transform="translate(22.5,14.5)"
           fill="none"
           stroke="#041e42"
           stroke-width="3">
          <circle
             cx="67"
             cy="67"
             r="67"
             stroke="none"
             id="circle15" />
          <circle
             cx="67"
             cy="67"
             r="65.5"
             fill="none"
             id="circle17" />
        </g>
      </g>
    </g>
    <g
       id="Award"
       transform="translate(1166.246,8474.938)">
      <path
         id="Path_147"
         data-name="Path 147"
         d="m 766.745,-451.66 v 4.233 l 0.317,3.181 0.073,0.5 2.566,17.518 c 4.279,15.568 12.709,26.5 22.524,27.576 v 19.46 H 781.09 v 4.141 h 25.418 v -4.141 h -11.136 v -19.46 c 9.815,-1.077 18.246,-12.008 22.524,-27.576 3.252,-18.524 3.02,-21.171 3.02,-21.2 v -4.233 z m 0,4.233 c 10e-4,0.048 0.187,2.669 0,0 z m 27.054,44.8 c -12.9,0 -23.4,-19.874 -23.971,-44.8 h 47.942 c -0.503,24.843 -11.07,44.801 -23.97,44.801 z"
         transform="translate(-766.745,451.66)"
         fill="#041e42" />
      <path
         id="Path_150"
         data-name="Path 150"
         d="m 814.817,-403.2 a 10.287,10.287 0 0 1 -4.53,-2.4 l -1.888,3.312 a 12.727,12.727 0 0 0 6.48,3.229 z"
         transform="translate(-789.4,443.785)"
         fill="#041e42" />
      <path
         id="Path_151"
         data-name="Path 151"
         d="m 798.578,-411.012 1.951,-3.312 c -5.033,-6.294 -8.431,-17.307 -8.682,-27.576 l -3.146,0.166 c 0.314,11.345 4.089,23.601 9.877,30.722 z"
         transform="translate(-782.094,450.025)"
         fill="#041e42" />
    </g>
  </g>
</svg>
